# xmcd
#
# Track frame offsets:
#	183
#	10088
#	24680
#	35625
#	50620
#	62695
#	77850
#	97658
#	108013
#	120363
#	132995
#	145533
#	154563
#	160000
#
# Disc length: 2394 seconds
#
# Revision: 0
# Processed by: cddbd v1.5.1PL0 Copyright (c) Steve Scherf et al.
# Submitted via: EasyCDDAExtractor 7.1.2.1
#
DISCID=a009580e
DTITLE=Nico Brina - Blues 'n' Boogie
DYEAR=1994
DGENRE=Blues
TTITLE0=Roll On Boogie
TTITLE1=Sixteen Tons
TTITLE2=Ain't Nobody Here But Us Chickens
TTITLE3=Fuer Elise-Summertime
TTITLE4=Blues In The Night
TTITLE5=Since I Met You Baby
TTITLE6=More Boogie Woogie
TTITLE7=Blue Moon Of Kentucky
TTITLE8=Basin Street Blues
TTITLE9=Small Blues
TTITLE10=Love Me
TTITLE11=Caldonia
TTITLE12=Nico's High Speed Boogie
TTITLE13=Blues
EXTD=
EXTT0=
EXTT1=
EXTT2=
EXTT3=
EXTT4=
EXTT5=
EXTT6=
EXTT7=
EXTT8=
EXTT9=
EXTT10=
EXTT11=
EXTT12=
EXTT13=
PLAYORDER=
